<?xml version="1.0" standalone="no"?>
<!DOCTYPE svg PUBLIC "-//W3C//DTD SVG 20010904//EN"
 "http://www.w3.org/TR/2001/REC-SVG-20010904/DTD/svg10.dtd">
<svg version="1.0" xmlns="http://www.w3.org/2000/svg"
 width="549.000000pt" height="455.000000pt" viewBox="0 0 549.000000 455.000000"
 preserveAspectRatio="xMidYMid meet">

<g transform="translate(0.000000,455.000000) scale(0.100000,-0.100000)"
fill="#000000" stroke="none">
<path d="M2666 4197 c-181 -221 -547 -705 -599 -793 -62 -104 -135 -263 -174
-383 -20 -62 -43 -115 -50 -118 -7 -3 -50 11 -95 30 -273 115 -523 165 -868
174 -195 5 -218 4 -233 -11 -14 -15 -17 -39 -17 -159 0 -344 59 -655 179 -942
23 -55 39 -105 37 -111 -3 -7 -20 -15 -38 -19 -222 -49 -678 -223 -678 -259 0
-35 153 -264 262 -393 141 -167 302 -297 467 -379 311 -153 706 -190 1096
-102 122 27 327 87 342 100 20 16 -11 59 -106 150 -101 96 -200 164 -340 234
-128 64 -228 93 -341 100 l-85 6 51 -30 c83 -47 194 -135 270 -214 81 -84 108
-122 101 -142 -8 -20 -138 -36 -305 -36 -367 0 -609 89 -864 317 -88 79 -207
214 -235 267 -12 24 -13 31 -1 41 42 40 356 128 573 161 89 14 178 18 345 19
266 0 338 -14 508 -95 140 -67 214 -119 372 -261 157 -140 241 -206 325 -251
53 -29 69 -33 135 -33 68 0 81 3 145 39 95 52 148 92 295 221 181 159 205 177
307 238 255 150 573 185 1018 111 192 -32 478 -117 506 -150 17 -21 -44 -107
-165 -232 -221 -227 -424 -335 -719 -382 -152 -24 -512 -6 -524 27 -7 19 38
75 136 171 77 74 135 118 251 192 l35 22 -85 -6 c-149 -9 -279 -58 -475 -176
-141 -85 -321 -257 -313 -299 3 -17 91 -47 268 -91 375 -94 704 -87 1021 21
304 103 609 369 813 707 36 60 66 117 66 125 0 41 -347 180 -618 247 -53 13
-96 30 -99 37 -3 8 11 49 30 91 81 173 145 410 171 642 19 164 22 460 4 478
-15 15 -292 16 -439 2 -241 -24 -472 -81 -656 -162 -51 -22 -99 -38 -107 -35
-7 3 -25 45 -40 93 -36 114 -114 294 -165 383 -49 84 -124 185 -382 516 -107
138 -208 269 -224 292 -17 23 -36 45 -42 47 -7 3 -28 -14 -47 -37z m239 -461
c274 -385 297 -423 345 -571 84 -255 81 -617 -5 -861 -42 -117 -106 -174 -195
-174 -126 0 -166 112 -87 245 54 91 71 162 64 269 -6 118 -34 191 -101 264
-65 71 -130 102 -212 102 -89 0 -146 -23 -210 -86 -79 -76 -115 -161 -122
-280 -5 -105 7 -154 69 -272 43 -81 49 -133 24 -182 -35 -68 -151 -81 -223
-24 -151 120 -204 660 -96 982 45 135 119 271 222 409 32 43 109 150 172 238
62 88 123 170 134 183 l21 23 30 -33 c16 -19 93 -123 170 -232z m-1835 -851
c198 -19 307 -40 427 -80 94 -32 270 -112 302 -138 10 -9 12 -30 7 -92 -13
-157 24 -442 79 -620 14 -43 21 -83 17 -87 -4 -4 -59 3 -123 16 -150 31 -399
47 -554 37 -81 -5 -125 -4 -134 3 -23 17 -116 221 -149 327 -37 114 -67 259
-82 384 -11 102 -13 248 -3 258 9 10 50 8 213 -8z m3494 -1 c17 -43 -28 -394
-70 -554 -39 -145 -142 -390 -174 -410 -4 -3 -70 -2 -146 1 -181 9 -390 -5
-538 -36 -66 -13 -123 -22 -127 -20 -4 3 4 42 17 87 54 184 89 447 82 618 l-3
95 103 52 c192 96 407 151 667 172 173 13 182 13 189 -5z"/>
</g>
</svg>
